<svg xmlns="http://www.w3.org/2000/svg" width="256" height="256"><g stroke-width="0" stroke-miterlimit="10" fill="#000"><path d="M85.128 208.585H45.934v-38.761h39.194v38.761zm-30.764-8.337h22.334V178.16H54.364v22.087zM211.578 208.585h-39.191v-38.761h39.19v38.761zm-30.761-8.337h22.33V178.16h-22.33v22.087zM84.26 58.511H45.067v-38.76h39.194v38.76zm-30.762-8.337h22.334V28.088H53.498v22.086zM134.84 58.511H95.647v-38.76h39.194v38.76zm-30.762-8.337h22.334V28.088h-22.334v22.086zM84.26 108.538H45.067V69.774h39.194v38.764zM53.497 100.2h22.334V78.114H53.498v22.087zM134.84 108.538H95.647V69.774h39.194v38.764zm-30.762-8.337h22.334V78.114h-22.334v22.087zM84.26 158.561H45.067v-38.763h39.194v38.763zm-30.762-8.337h22.334v-22.086H53.498v22.086zM134.84 158.561H95.647v-38.763h39.194v38.763zm-30.762-8.337h22.334v-22.086h-22.334v22.086zM210.71 108.538h-39.192V69.774h39.191v38.764zm-30.762-8.337h22.331V78.114h-22.33v22.087zM210.71 158.561h-39.192v-38.763h39.191v38.763zm-30.762-8.337h22.331v-22.086h-22.33v22.086z"/><path d="M233.139 245.97V50.173h-75.685V1.407H22.574v244.562H7.027v8.338H248.687v-8.338h-15.548zm-8.43-187.459V245.97h-67.255V58.511h67.255zM104.944 245.97v-67.808h22.334v67.808h-22.334zm-8.43-76.145v76.145h-65.51V9.744h118.02v236.225h-13.316v-76.145H96.514z"/></g></svg>